<svg xmlns="http://www.w3.org/2000/svg" viewBox="0 0 64 64">
  <defs>
    <linearGradient id="realHeartGrad" x1="0%" y1="0%" x2="100%" y2="100%">
      <stop offset="0%" stop-color="#fb7185"/>
      <stop offset="50%" stop-color="#f43f5e"/>
      <stop offset="100%" stop-color="#7c2d12"/>
    </linearGradient>
  </defs>

  <rect width="64" height="64" rx="16" fill="#020617"/>

  <!-- Neural links (AI prediction) -->
  <line x1="18" y1="18" x2="30" y2="26" stroke="#64748b" stroke-width="1.3"/>
  <line x1="46" y1="22" x2="36" y2="28" stroke="#64748b" stroke-width="1.3"/>
  <line x1="24" y1="46" x2="32" y2="38" stroke="#64748b" stroke-width="1.3"/>

  <circle cx="18" cy="18" r="2.5" fill="#38bdf8"/>
  <circle cx="46" cy="22" r="2.5" fill="#a78bfa"/>
  <circle cx="24" cy="46" r="2.5" fill="#22c55e"/>

  <!-- Anatomically-inspired heart -->
  <path
    d="M34 18
       c-3.5-1.5-7 1-8 4
       c-2.5-1.5-6-0.5-7.5 2.5
       c-2 4 0.5 9.5 3.5 13
       c2.8 3.3 6.8 6.5 9.5 8.5
       c3-2.3 7.8-6.2 10.5-10
       c2.2-3.2 3.8-8.2 1.2-12
       c-1.5-2.2-4.2-3.2-6.2-2
       c-0.5-2.2-1.8-3.5-3-4z"
    fill="url(#realHeartGrad)"
  />

  <!-- Aorta hint -->
  <path
    d="M34 14c2 1.5 2.5 4 1.8 6"
    fill="none"
    stroke="#fecaca"
    stroke-width="2"
    stroke-linecap="round"
  />
</svg>
